<?xml version="1.0" encoding="iso-8859-1"?>
<!-- Generator: Adobe Illustrator 19.0.0, SVG Export Plug-In . SVG Version: 6.00 Build 0)  -->
<svg version="1.1" id="Capa_1" xmlns="http://www.w3.org/2000/svg" xmlns:xlink="http://www.w3.org/1999/xlink" x="0px" y="0px"
	 viewBox="0 0 480 480" style="enable-background:new 0 0 480 480;" xml:space="preserve">
<linearGradient id="SVGID_1_" gradientUnits="userSpaceOnUse" x1="-65.8256" y1="603.125" x2="14.3644" y2="603.125" gradientTransform="matrix(8 0 0 -8 511.0043 4941)">
	<stop  offset="0" style="stop-color:#E93E3A"/>
	<stop  offset="0.354" style="stop-color:#ED683C"/>
	<stop  offset="0.718" style="stop-color:#F3903F"/>
	<stop  offset="1" style="stop-color:#FDC70C"/>
</linearGradient>
<path style="fill:url(#SVGID_1_);" d="M455.999,24h-16V8c0-4.418-3.582-8-8-8h-32c-4.418,0-8,3.582-8,8v16h-16
	c-8.837,0-16,7.163-16,16v176c0,8.837,7.163,16,16,16h80c8.837,0,16-7.163,16-16V40C471.999,31.163,464.836,24,455.999,24z
	 M407.999,16h16v8h-16V16z M375.999,216V40h80v176H375.999z"/>
<g>
	
		<linearGradient id="SVGID_2_" gradientUnits="userSpaceOnUse" x1="-65.8256" y1="593.625" x2="14.3644" y2="593.625" gradientTransform="matrix(8 0 0 -8 511.0043 4941)">
		<stop  offset="0" style="stop-color:#E93E3A"/>
		<stop  offset="0.354" style="stop-color:#ED683C"/>
		<stop  offset="0.718" style="stop-color:#F3903F"/>
		<stop  offset="1" style="stop-color:#FDC70C"/>
	</linearGradient>
	<path style="fill:url(#SVGID_2_);" d="M383.999,184h64v16h-64V184z"/>
	
		<linearGradient id="SVGID_3_" gradientUnits="userSpaceOnUse" x1="-65.8256" y1="597.625" x2="14.3644" y2="597.625" gradientTransform="matrix(8 0 0 -8 511.0043 4941)">
		<stop  offset="0" style="stop-color:#E93E3A"/>
		<stop  offset="0.354" style="stop-color:#ED683C"/>
		<stop  offset="0.718" style="stop-color:#F3903F"/>
		<stop  offset="1" style="stop-color:#FDC70C"/>
	</linearGradient>
	<path style="fill:url(#SVGID_3_);" d="M383.999,152h64v16h-64V152z"/>
	
		<linearGradient id="SVGID_4_" gradientUnits="userSpaceOnUse" x1="-65.8256" y1="601.625" x2="14.3644" y2="601.625" gradientTransform="matrix(8 0 0 -8 511.0043 4941)">
		<stop  offset="0" style="stop-color:#E93E3A"/>
		<stop  offset="0.354" style="stop-color:#ED683C"/>
		<stop  offset="0.718" style="stop-color:#F3903F"/>
		<stop  offset="1" style="stop-color:#FDC70C"/>
	</linearGradient>
	<path style="fill:url(#SVGID_4_);" d="M383.999,120h64v16h-64V120z"/>
	
		<linearGradient id="SVGID_5_" gradientUnits="userSpaceOnUse" x1="-65.8256" y1="595.875" x2="14.3644" y2="595.875" gradientTransform="matrix(8 0 0 -8 511.0043 4941)">
		<stop  offset="0" style="stop-color:#E93E3A"/>
		<stop  offset="0.354" style="stop-color:#ED683C"/>
		<stop  offset="0.718" style="stop-color:#F3903F"/>
		<stop  offset="1" style="stop-color:#FDC70C"/>
	</linearGradient>
	<path style="fill:url(#SVGID_5_);" d="M115.999,176c-11.046,0-20-8.954-20-20h-16c0,19.882,16.118,36,36,36s36-16.118,36-36h-16
		C135.999,167.046,127.045,176,115.999,176z"/>
	
		<linearGradient id="SVGID_6_" gradientUnits="userSpaceOnUse" x1="-65.8256" y1="587.625" x2="14.3644" y2="587.625" gradientTransform="matrix(8 0 0 -8 511.0043 4941)">
		<stop  offset="0" style="stop-color:#E93E3A"/>
		<stop  offset="0.354" style="stop-color:#ED683C"/>
		<stop  offset="0.718" style="stop-color:#F3903F"/>
		<stop  offset="1" style="stop-color:#FDC70C"/>
	</linearGradient>
	<path style="fill:url(#SVGID_6_);" d="M439.999,304c-0.044,39.746-32.254,71.956-72,72c-4.418,0-8,3.582-8,8v80h-176v-72h40v-16
		h-112c-22.08-0.026-39.974-17.92-40-40v-64c0-4.418-3.582-8-8-8h-36.92l52.312-157.984C100.973,52.058,153.024,16.493,211.135,16
		h132.864V0H211.135C146.354,0.532,88.345,40.241,64.407,100.44l-56,169.048c-1.387,4.195,0.889,8.72,5.083,10.107
		C14.3,279.863,15.147,280,15.999,280h40v56c0.035,30.913,25.087,55.965,56,56h56v80c0,4.418,3.582,8,8,8h192c4.418,0,8-3.582,8-8
		v-80.36c45.288-4.191,79.946-42.159,80-87.64v-56h-16V304z"/>
</g>
<g>
</g>
<g>
</g>
<g>
</g>
<g>
</g>
<g>
</g>
<g>
</g>
<g>
</g>
<g>
</g>
<g>
</g>
<g>
</g>
<g>
</g>
<g>
</g>
<g>
</g>
<g>
</g>
<g>
</g>
</svg>
