<svg id="Capa_1" enable-background="new 0 0 512 512" height="512" viewBox="0 0 512 512" width="512" xmlns="http://www.w3.org/2000/svg"><g><path d="m474.5 203.17c0 .52-90 90-90 90h30c49.71 0 90-40.3 90-90z" fill="#6ee2f6"/><path d="m316 263.17v30h68.5c49.19 0 89.16-39.46 89.98-88.45z" fill="#b6f1fb"/><path d="m271 263.167h143.5c33.137 0 60-26.863 60-60l-203.5.003z" fill="#adcb74"/><path d="m37.5 203.17h-30c0 49.7 40.29 90 90 90h98.5v-30z" fill="#b6f1fb"/><path d="m241 263.17h-143.5c-33.14 0-60-26.87-60-60h203.5z" fill="#adcb74"/><path d="m346 413.83v90.67h-30l-45-120.67z" fill="#ff7b3d"/><path d="m166 413.83v90.67h60l30-22.5 30 22.5h30v-135.67z" fill="#ff9a42"/><path d="m286 459.5v45h-30l-15-60z" fill="#ffe8c2"/><path d="m256 444.5v60h-30v-45z" fill="#fff5e5"/><path d="m286 429.5v30h-30-30v-30z" fill="#ad4c2d"/><path d="m301 353.83-60-15 75 75h30v-15c0-24.85-20.15-45-45-45z" fill="#c75b31"/><path d="m316 398.83v15l-30 15.67h-60l-30-15.67h-30v-15c0-24.85 20.15-45 45-45l45-30 15 30c24.85 0 45 20.15 45 45z" fill="#e76c38"/><path d="m346 68.17v30l-45 15v-60z" fill="#ffe8c2"/><path d="m271 53.17h45v60h-45z" fill="#fff5e5"/><path d="m211 53.17v60l-45-15v-30z" fill="#fff5e5"/><path d="m196 53.17h45v60h-45z" fill="#ffe8c2"/><path d="m166 7.5 30 60.67h120l30-60.67z" fill="#adcb74"/><path d="m316 98.17-75 75 60-15c24.85 0 45-20.15 45-45v-15z" fill="#5cc563"/><path d="m166 98.17v15c0 24.85 20.15 45 45 45l45 30 15-30c24.85 0 45-20.15 45-45v-15z" fill="#adcb74"/><path d="m346 7.5v60.67h-30v-30.67c0-16.57 13.43-30 30-30z" fill="#913721"/><path d="m196 37.5v30.67h-30v-60.67c16.57 0 30 13.43 30 30z" fill="#ad4c2d"/><path d="m286 98.17v17.57c0 19.59-12.52 36.25-30 42.43-17.48-6.18-30-22.84-30-42.43v-17.57-30-.67c0-16.57 13.43-30 30-30s30 13.43 30 30v.67z" fill="#ff5a35"/><path d="m271 203.17v150.66h30c24.85 0 45-20.14 45-45v-45.66z" fill="#ff9a42"/><path d="m316 203.17v105.66c0 24.86-20.15 45-45 45h-60c-24.85 0-45-20.14-45-45v-15.66-30z" fill="#ffba48"/><path d="m301 158.17h-30l-15 105 90-30v-30c0-24.86-20.15-45-45-45z" fill="#6ee2f6"/><path d="m271 158.17h-60c-24.85 0-45 20.14-45 45v30l75 30v45h30v-45l45-30v-30c0-24.86-20.15-45-45-45z" fill="#b6f1fb"/><path d="m346 233.17v30h-30l-15-14.225 15-15.775z" fill="#913721"/><path d="m241 263.17h-75v-30h45c16.57 0 30 13.43 30 30z" fill="#ad4c2d"/><path d="m316 233.17v30h-45c0-16.57 13.43-30 30-30z" fill="#ad4c2d"/><path d="m301 293.17c8.28 0 15 6.71 15 15 0 4.14-1.68 7.89-4.4 10.61-2.71 2.71-6.46 4.39-10.6 4.39h-15l-15-15 15-15z" fill="#ffe8c2"/><path d="m286 293.17v30h-30l-15-15 15-15z" fill="#fff5e5"/><path d="m256 293.17v30h-30l-15-15.003 15-14.997z" fill="#fff"/><path d="m226 293.17v30h-15c-8.28 0-15-6.72-15-15 0-8.29 6.72-15 15-15z" fill="#fff5e5"/><path d="m211 444.5c-8.284 0-15-6.716-15-15v-30.667c0-8.271 6.729-15 15-15s15 6.729 15 15v30.667c0 8.284-6.716 15-15 15z" fill="#913721"/><path d="m301 444.5c-8.284 0-15-6.716-15-15v-30.667c0-8.271 6.729-15 15-15s15 6.729 15 15v30.667c0 8.284-6.716 15-15 15z" fill="#913721"/><path d="m504.5 195.667h-151.544c-2.286-15.908-11.724-29.534-24.947-37.5 15.26-9.194 25.491-25.923 25.491-45v-105.667c0-4.142-3.357-7.5-7.5-7.5h-180c-4.142 0-7.5 3.358-7.5 7.5v105.667c0 19.077 10.231 35.806 25.491 45-13.223 7.966-22.66 21.592-24.947 37.5h-151.544c-4.142 0-7.5 3.358-7.5 7.5 0 53.762 43.738 97.5 97.5 97.5h61v8.167c0 19.077 10.231 35.806 25.491 45-15.26 9.194-25.491 25.923-25.491 45v105.666c0 4.142 3.358 7.5 7.5 7.5h180c4.143 0 7.5-3.358 7.5-7.5v-105.667c0-19.077-10.231-35.806-25.491-45 15.26-9.194 25.491-25.923 25.491-45v-8.167h61c53.762 0 97.5-43.738 97.5-97.5 0-4.142-3.357-7.499-7.5-7.499zm-331 45h37.5c9.778 0 18.114 6.271 21.21 15h-58.71zm37.5 75c-4.136 0-7.5-3.364-7.5-7.5s3.364-7.5 7.5-7.5h7.5v15zm22.5-15h15v15h-15zm30 0h15v15h-15zm30 0h7.5c4.136 0 7.5 3.364 7.5 7.5s-3.364 7.5-7.5 7.5h-7.5zm45-45h-58.71c3.096-8.729 11.433-15 21.21-15h37.5zm127.956-45c-3.651 25.407-25.554 45-51.956 45h-61v-45zm-165.456-60h-20.828c8.385-9.417 13.328-21.766 13.328-34.929v-10.071h45v7.5c0 20.677-16.822 37.5-37.5 37.5zm-82.5-60h-15v-15h15zm-30-53.167v23.167h-15v-44.377c8.729 3.096 15 11.432 15 21.21zm0 38.167v15h-15v-15zm30.635-15h-15.635v-23.167c0-8.436-2.801-16.228-7.52-22.5h120.04c-4.719 6.272-7.52 14.064-7.52 22.5v23.167h-15.635c-3.223-17.425-18.522-30.667-36.865-30.667s-33.642 13.242-36.865 30.667zm74.365 15h15v15h-15zm30 0h15v15h-15zm0-15v-23.167c0-9.777 6.271-18.114 15-21.21v44.376h-15zm-90 6.833c0-12.407 10.093-22.5 22.5-22.5 12.406 0 22.5 10.093 22.5 22.5v48.237c0 14.96-8.938 28.451-22.5 34.372-13.562-5.921-22.5-19.412-22.5-34.372zm-60 45.667v-7.5h45v10.071c0 13.163 4.943 25.512 13.328 34.929h-20.828c-20.678 0-37.5-16.823-37.5-37.5zm37.5 52.5h90c20.678 0 37.5 16.822 37.5 37.5v22.5h-37.5c-20.678 0-37.5 16.822-37.5 37.5v22.5h-15v-22.5c0-20.678-16.822-37.5-37.5-37.5h-37.5v-22.5c0-20.678 16.822-37.5 37.5-37.5zm-113.5 120c-42.964 0-78.362-33.009-82.162-75h15.089c3.744 33.702 32.39 60 67.073 60 4.142 0 7.5-3.358 7.5-7.5s-3.358-7.5-7.5-7.5c-26.402 0-48.304-19.593-51.956-45h112.956v45h-31c-4.142 0-7.5 3.358-7.5 7.5s3.358 7.5 7.5 7.5h31v15zm76 135.666h15v8.167c0 12.407 10.093 22.5 22.5 22.5 2.629 0 5.153-.458 7.5-1.29v46.29h-45zm60 45.667h15v30h-15zm30 0h15v30h-15zm15-15h-45v-15h45zm-60-22.5c0 4.136-3.364 7.5-7.5 7.5s-7.5-3.364-7.5-7.5v-30.667c0-4.136 3.364-7.5 7.5-7.5s7.5 3.364 7.5 7.5zm75 67.5v-46.29c2.347.833 4.871 1.29 7.5 1.29 12.406 0 22.5-10.093 22.5-22.5v-8.167h15v75.667zm0-67.5v-30.667c0-4.136 3.364-7.5 7.5-7.5s7.5 3.364 7.5 7.5v30.667c0 4.136-3.364 7.5-7.5 7.5s-7.5-3.364-7.5-7.5zm45-30.667v7.5h-15v-7.5c0-12.407-10.094-22.5-22.5-22.5s-22.5 10.093-22.5 22.5v23.167h-45v-23.167c0-12.407-10.093-22.5-22.5-22.5s-22.5 10.093-22.5 22.5v7.5h-15v-7.5c0-20.678 16.822-37.5 37.5-37.5h90c20.678 0 37.5 16.823 37.5 37.5zm-37.5-52.5h-90c-20.678 0-37.5-16.822-37.5-37.5v-38.167h60v15h-22.5c-12.407 0-22.5 10.093-22.5 22.5s10.093 22.5 22.5 22.5h90c12.406 0 22.5-10.093 22.5-22.5s-10.094-22.5-22.5-22.5h-22.5v-15h60v38.167c0 20.678-16.822 37.5-37.5 37.5zm113.5-60.666h-61v-15h61c34.684 0 63.329-26.298 67.073-60h15.089c-3.8 41.991-39.198 75-82.162 75z"/></g></svg>